<?xml version="1.0" encoding="UTF-8" standalone="no"?>
<!-- Created with Serif DrawPlus 11, 0, 0, 18 (Mar 20, 15:09:53) (http://www.serif.com) -->
<svg version="1.1" xmlns="http://www.w3.org/2000/svg" xmlns:xlink="http://www.w3.org/1999/xlink" xmlns:i="http://ns.adobe.com/AdobeIllustrator/10.0/" width="924.604" height="79.1173">
	<path id="dp_path001" transform="matrix(1,0,0,1,-56.8813,-256.295)" fill="black" fill-rule="evenodd" d="M 78.5027,335.411 L 79.7733,335.353 L 80.988,335.18 L 82.2013,335.007 L 83.4733,334.776 L 84.688,334.487 L 85.9013,334.081 L 87.0573,333.677 L 88.2147,333.215 L 90.816,332.117 L 93.3587,331.251 L 95.8453,330.499 L 98.2733,329.921 L 100.643,329.401 L 102.897,328.996 L 105.095,328.707 L 107.233,328.476 L 111.223,328.129 L 114.864,327.783 L 116.483,327.609 L 118.044,327.379 L 119.431,327.089 L 120.761,326.684 L 122.957,325.876 L 124.808,325.008 L 126.368,324.2 L 127.697,323.332 L 128.855,322.524 L 129.837,321.715 L 130.761,321.021 L 131.687,320.328 L 132.553,319.692 L 133.536,319.172 L 134.635,318.767 L 135.271,318.593 L 135.907,318.479 L 136.6,318.363 L 137.409,318.305 L 139.201,318.305 L 141.283,318.42 L 143.769,318.709 L 147.757,319.287 L 152.093,319.749 L 156.776,320.269 L 161.748,320.675 L 166.951,321.021 L 172.269,321.368 L 177.761,321.656 L 183.368,321.831 L 188.976,322.004 L 194.583,322.061 L 200.133,322.119 L 205.625,322.061 L 210.943,321.888 L 216.147,321.715 L 221.06,321.368 L 225.743,321.021 L 229.847,320.559 L 234.009,320.096 L 242.276,319.056 L 250.427,318.016 L 254.532,317.553 L 258.579,317.207 L 262.567,316.917 L 266.556,316.744 L 270.545,316.744 L 272.511,316.803 L 274.476,316.86 L 276.441,316.976 L 278.407,317.149 L 280.372,317.38 L 282.28,317.669 L 284.245,318.016 L 286.153,318.42 L 288.061,318.883 L 290.027,319.403 L 295.519,320.905 L 300.779,322.177 L 305.751,323.217 L 310.491,324.084 L 314.943,324.72 L 319.163,325.181 L 323.093,325.529 L 326.793,325.644 L 330.261,325.644 L 333.441,325.529 L 336.389,325.24 L 339.107,324.835 L 341.592,324.373 L 343.789,323.795 L 345.812,323.101 L 347.547,322.408 L 351.073,320.675 L 352.692,319.865 L 354.195,318.999 L 355.583,318.189 L 356.912,317.323 L 358.125,316.513 L 359.224,315.647 L 397.379,315.3 L 435.475,314.953 L 473.629,314.491 L 511.668,314.028 L 549.705,313.508 L 587.744,312.931 L 625.725,312.236 L 663.707,311.601 L 701.687,310.849 L 739.609,310.04 L 777.475,309.173 L 815.34,308.307 L 853.205,307.324 L 891.012,306.341 L 928.82,305.301 L 966.569,304.204 L 968.477,304.088 L 970.211,303.972 L 971.829,303.741 L 973.275,303.511 L 974.663,303.221 L 975.876,302.875 L 976.975,302.528 L 977.957,302.123 L 978.825,301.661 L 979.576,301.199 L 980.212,300.736 L 980.675,300.216 L 981.079,299.696 L 981.311,299.176 L 981.484,298.656 L 981.484,298.077 L 981.427,297.557 L 981.195,297.037 L 980.905,296.46 L 980.444,295.94 L 979.923,295.419 L 979.229,294.899 L 978.477,294.437 L 977.553,293.975 L 976.571,293.512 L 975.472,293.108 L 974.257,292.761 L 972.928,292.415 L 971.483,292.125 L 969.98,291.836 L 968.361,291.663 L 966.569,291.489 L 929.108,290.623 L 891.591,289.813 L 854.072,289.063 L 816.612,288.368 L 779.093,287.675 L 741.575,287.097 L 704.115,286.519 L 666.596,286.057 L 629.079,285.595 L 591.56,285.191 L 554.1,284.844 L 516.581,284.555 L 479.063,284.265 L 441.603,284.092 L 404.084,283.919 L 366.567,283.861 L 366.971,282.359 L 367.201,281.087 L 367.26,280.047 L 367.144,279.121 L 367.028,278.775 L 366.913,278.428 L 366.74,278.14 L 366.508,277.851 L 366.277,277.62 L 366.045,277.447 L 365.757,277.331 L 365.409,277.215 L 364.716,277.041 L 363.907,277.041 L 362.981,277.099 L 361.999,277.272 L 360.959,277.561 L 359.86,277.851 L 357.548,278.717 L 354.368,276.752 L 351.477,275.076 L 348.703,273.689 L 346.159,272.533 L 343.732,271.667 L 341.477,270.973 L 339.396,270.453 L 337.488,270.164 L 335.696,270.049 L 333.961,270.049 L 332.401,270.223 L 330.956,270.453 L 329.625,270.857 L 328.355,271.32 L 327.14,271.84 L 326.041,272.419 L 325.001,273.053 L 324.019,273.689 L 322.168,274.961 L 320.435,276.117 L 319.625,276.579 L 318.757,276.984 L 317.948,277.331 L 317.081,277.504 L 316.215,277.561 L 315.289,277.504 L 314.364,277.272 L 313.324,276.868 L 312.283,276.232 L 311.127,275.423 L 310.433,274.903 L 309.74,274.441 L 308.988,274.036 L 308.295,273.689 L 307.6,273.459 L 306.907,273.285 L 306.155,273.169 L 305.461,273.112 L 304.768,273.169 L 304.016,273.227 L 303.323,273.4 L 302.629,273.689 L 301.877,273.979 L 301.184,274.383 L 300.489,274.903 L 299.739,275.423 L 298.061,276.291 L 296.155,277.041 L 295.229,277.388 L 294.189,277.735 L 293.148,278.024 L 292.108,278.255 L 291.009,278.428 L 289.911,278.544 L 288.755,278.601 L 287.599,278.544 L 286.443,278.428 L 285.228,278.255 L 283.956,277.908 L 282.743,277.504 L 281.817,277.215 L 280.951,276.984 L 280.141,276.752 L 279.332,276.637 L 278.58,276.579 L 277.829,276.579 L 277.077,276.579 L 276.384,276.695 L 275.053,276.925 L 273.783,277.331 L 272.625,277.793 L 271.469,278.371 L 269.273,279.643 L 268.232,280.22 L 267.192,280.797 L 266.093,281.319 L 265.053,281.723 L 263.896,282.012 L 263.376,282.127 L 262.799,282.185 L 258.925,282.243 L 255.052,282.243 L 251.236,282.185 L 247.421,282.012 L 243.605,281.78 L 239.848,281.433 L 236.032,281.087 L 232.275,280.683 L 224.644,279.816 L 216.956,278.833 L 209.209,277.908 L 201.289,277.099 L 200.827,276.984 L 200.364,276.868 L 199.901,276.695 L 199.497,276.521 L 198.804,276.059 L 198.168,275.423 L 197.647,274.788 L 197.185,274.036 L 196.78,273.285 L 196.433,272.533 L 195.74,271.089 L 195.392,270.511 L 195.045,270.049 L 194.699,269.701 L 194.468,269.587 L 194.236,269.528 L 194.005,269.471 L 193.773,269.528 L 193.485,269.587 L 193.196,269.76 L 191.115,270.857 L 188.976,271.899 L 186.779,272.939 L 184.409,273.863 L 181.923,274.672 L 179.321,275.423 L 176.489,276.117 L 173.54,276.637 L 170.361,277.099 L 167.067,277.388 L 163.481,277.62 L 159.667,277.677 L 155.62,277.561 L 151.341,277.272 L 146.775,276.868 L 141.919,276.232 L 142.035,275.481 L 142.035,274.845 L 141.977,274.268 L 141.861,273.748 L 141.688,273.343 L 141.399,272.996 L 141.109,272.765 L 140.705,272.533 L 140.3,272.419 L 139.78,272.36 L 139.26,272.303 L 138.624,272.303 L 137.295,272.476 L 135.791,272.765 L 132.38,273.516 L 130.473,273.921 L 128.449,274.268 L 126.427,274.556 L 124.287,274.788 L 123.189,274.788 L 122.148,274.788 L 121.049,274.729 L 119.952,274.615 L 117.697,274.325 L 115.616,273.921 L 113.708,273.516 L 111.916,272.996 L 110.24,272.419 L 108.736,271.84 L 107.349,271.147 L 106.077,270.453 L 104.979,269.644 L 103.939,268.835 L 103.013,267.968 L 102.204,267.044 L 101.452,266.061 L 100.875,265.079 L 100.296,263.98 L 99.8333,262.883 L 99.3133,261.496 L 98.736,260.281 L 98.1,259.241 L 97.4053,258.317 L 96.712,257.565 L 96.308,257.277 L 95.9027,256.988 L 95.44,256.815 L 95.036,256.583 L 94.5733,256.468 L 94.0533,256.352 L 93.532,256.352 L 93.012,256.295 L 92.4347,256.352 L 91.856,256.409 L 90.6427,256.699 L 89.2547,257.161 L 87.8093,257.797 L 86.1907,258.605 L 84.3987,259.647 L 82.5493,260.803 L 81.2773,260.455 L 80.0627,260.108 L 78.7907,259.82 L 77.4613,259.588 L 76.1893,259.415 L 74.9173,259.3 L 73.6467,259.184 L 72.3747,259.184 L 71.1027,259.184 L 69.8307,259.3 L 68.6173,259.415 L 67.46,259.647 L 66.304,259.877 L 65.2053,260.224 L 64.1653,260.571 L 63.1253,261.033 L 62.1427,261.553 L 61.2747,262.131 L 60.4653,262.767 L 59.7147,263.519 L 59.02,264.269 L 58.4427,265.136 L 57.9213,266.061 L 57.5173,267.044 L 57.1707,268.141 L 56.9387,269.297 L 56.8813,270.511 L 56.8813,271.84 L 56.9973,273.227 L 57.228,274.672 L 57.6333,276.232 L 58.096,277.908 L 58.4427,278.891 L 58.6733,279.873 L 58.9053,280.74 L 59.02,281.607 L 59.0787,282.416 L 59.0787,283.225 L 59.02,284.728 L 58.8467,286.172 L 58.616,287.675 L 58.3267,289.236 L 58.096,290.912 L 57.8067,293.569 L 57.5173,297.268 L 57.344,299.291 L 57.228,301.488 L 57.1707,303.684 L 57.228,305.937 L 57.2867,308.133 L 57.46,310.213 L 57.8067,312.179 L 57.98,313.104 L 58.2107,313.971 L 58.5,314.78 L 58.8467,315.531 L 59.1933,316.224 L 59.5987,316.803 L 60.0027,317.323 L 60.524,317.784 L 61.044,318.132 L 61.6213,318.42 L 62.7773,318.709 L 63.876,318.999 L 64.8013,319.287 L 65.264,319.46 L 65.668,319.749 L 66.0147,320.039 L 66.3627,320.385 L 66.5933,320.848 L 66.7667,321.368 L 66.94,322.004 L 66.9987,322.755 L 66.9987,323.68 L 66.94,324.72 L 66.8827,326.107 L 66.94,327.436 L 67.172,328.592 L 67.5187,329.689 L 67.9813,330.672 L 68.5013,331.539 L 69.1947,332.291 L 69.9467,332.984 L 70.8133,333.62 L 71.7387,334.081 L 72.7213,334.544 L 73.82,334.833 L 74.9173,335.123 L 76.0747,335.296 L 77.288,335.353 Z "/>
</svg>